<?xml version="1.0" standalone="no"?>
<!DOCTYPE svg PUBLIC "-//W3C//DTD SVG 20010904//EN"
 "http://www.w3.org/TR/2001/REC-SVG-20010904/DTD/svg10.dtd">
<svg version="1.0" xmlns="http://www.w3.org/2000/svg"
 width="577.000000pt" height="433.000000pt" viewBox="0 0 577.000000 433.000000"
 preserveAspectRatio="xMidYMid meet">

<g transform="translate(0.000000,433.000000) scale(0.100000,-0.100000)"
fill="#000000" stroke="none">
<path d="M2365 3030 c-65 -13 -166 -64 -217 -110 -34 -29 -61 -67 -90 -127
l-43 -86 -3 -521 c-2 -356 1 -535 8 -566 17 -70 67 -160 118 -212 26 -27 50
-48 54 -48 5 0 26 -11 47 -24 55 -35 135 -56 212 -56 75 0 66 -9 106 108 10
28 23 52 29 52 6 0 26 -8 45 -17 48 -25 191 -25 237 0 l33 18 13 -33 c7 -18
21 -54 30 -80 l18 -48 103 0 103 0 70 55 c76 59 188 202 222 281 12 27 20 68
20 101 0 49 -4 59 -34 89 -41 41 -77 44 -112 8 -27 -26 -28 -38 -8 -132 18
-90 -91 -81 -125 11 -63 165 146 323 291 221 63 -44 101 -123 99 -207 -2 -116
-65 -248 -170 -354 -35 -35 -60 -67 -57 -70 21 -22 201 57 271 118 41 36 109
166 124 237 15 71 15 956 0 1038 -6 32 -26 88 -46 124 -50 94 -110 151 -207
196 l-81 39 -510 2 c-280 1 -528 -2 -550 -7z m-51 -411 c65 -22 138 -67 207
-127 40 -35 47 -37 84 -31 53 10 198 10 260 0 50 -9 50 -9 100 38 63 60 126
97 217 127 51 18 75 21 82 14 7 -7 11 -55 11 -118 -1 -118 -21 -195 -74 -282
-27 -43 -27 -48 -17 -108 10 -66 -1 -151 -29 -219 l-14 -32 -86 0 c-47 1 -89
-2 -92 -5 -4 -3 30 -6 75 -6 94 0 101 -8 49 -58 l-34 -33 -48 21 c-58 25 -72
21 -15 -5 22 -10 40 -23 40 -29 0 -17 -59 -46 -121 -60 -60 -13 -59 -8 -44
-122 l7 -51 -46 -18 c-54 -21 -144 -17 -193 8 l-30 16 5 79 4 78 -54 12 c-55
13 -118 45 -118 61 0 4 21 18 48 29 26 12 41 21 34 22 -7 0 -31 -9 -54 -21
l-40 -21 -34 33 c-53 51 -46 59 48 59 108 0 95 10 -18 13 l-89 2 -18 36 c-28
58 -41 150 -29 216 9 53 8 62 -13 98 -42 73 -75 198 -75 285 0 94 12 135 38
125 9 -3 44 -15 76 -26z"/>
<path d="M2264 2450 c6 -73 28 -148 53 -187 l15 -23 28 38 c15 20 37 46 49 56
38 34 27 58 -67 140 -76 66 -86 63 -78 -24z"/>
<path d="M3122 2463 c-92 -92 -91 -86 -46 -136 22 -23 46 -53 55 -66 l15 -24
22 51 c41 94 56 232 27 232 -8 0 -41 -26 -73 -57z"/>
<path d="M2325 1980 c3 -5 25 -10 48 -10 24 0 72 -14 112 -30 80 -34 89 -36
56 -14 -56 40 -235 84 -216 54z"/>
<path d="M3049 1975 c-46 -12 -132 -55 -125 -62 2 -2 27 9 57 24 30 15 77 29
107 31 29 3 55 8 58 13 7 13 -42 10 -97 -6z"/>
<path d="M2688 1903 c-27 -7 -22 -21 15 -43 40 -25 40 -25 74 5 24 21 26 26
13 35 -15 10 -70 12 -102 3z"/>
</g>
</svg>
